<svg width="113" height="52" viewBox="0 0 113 52" fill="none" xmlns="http://www.w3.org/2000/svg">
<g clip-path="url(#clip0_2051_516)">
<path d="M109.737 37.1601H109.254V26.5429C109.254 24.3712 108.649 22.3202 107.441 20.5104L100.069 9.41067C99.4642 8.44547 98.3765 7.84222 97.2888 7.84222H82.3027V43.4339H85.2033C85.2033 37.884 89.6749 33.42 95.2343 33.42C100.794 33.42 105.265 37.884 105.265 43.4339H109.737C111.55 43.4339 112.879 41.9861 112.879 40.297C112.879 38.6079 111.55 37.1601 109.737 37.1601ZM103.573 24.7332L86.4118 22.1995C86.1701 22.1995 85.9284 22.0789 85.8075 21.8376L84.9616 20.5104C84.8407 20.3898 84.8407 20.1485 84.8407 20.0278V11.2204C84.8407 10.8585 85.2033 10.4965 85.5658 10.4965H96.6846C97.168 10.4965 97.6514 10.7378 98.014 11.2204L105.144 22.3202C105.749 23.406 104.903 24.8538 103.573 24.7332Z" fill="#02B6AC"/>
<path d="M95.2342 34.9884C90.5208 34.9884 86.7743 38.7285 86.7743 43.4339C86.7743 46.0882 87.9828 48.5012 90.0374 50.0696H61.3946C60.9112 50.0696 60.4277 50.4316 60.4277 51.0348C60.4277 51.5174 60.7903 52 61.3946 52H95.355C99.9475 51.8794 103.694 48.1392 103.694 43.5545C103.694 38.7285 99.9475 34.9884 95.2342 34.9884ZM95.2342 47.7773C92.817 47.7773 90.8833 45.8469 90.8833 43.4339C90.8833 41.0209 92.817 39.0905 95.2342 39.0905C97.6513 39.0905 99.585 41.0209 99.585 43.4339C99.585 45.8469 97.6513 47.7773 95.2342 47.7773Z" fill="#02B6AC"/>
<path d="M28.4011 34.9884C23.6877 34.9884 19.9412 38.7285 19.9412 43.4339C19.9412 46.0882 21.1498 48.5012 23.2043 50.0696H14.8653C14.3819 50.0696 13.8984 50.4316 13.8984 51.0348C13.8984 51.5174 14.261 52 14.8653 52H28.522C33.2353 52 36.9819 48.1392 36.9819 43.5545C36.861 38.7285 33.1145 34.9884 28.4011 34.9884ZM28.4011 47.7773C25.984 47.7773 24.0503 45.8469 24.0503 43.4339C24.0503 41.0209 25.984 39.0905 28.4011 39.0905C30.8182 39.0905 32.7519 41.0209 32.7519 43.4339C32.7519 45.8469 30.8182 47.7773 28.4011 47.7773Z" fill="#02B6AC"/>
<path d="M55.9563 50.1902H52.9349C52.4514 50.1902 51.968 50.5522 51.968 51.1554C51.968 51.638 52.3306 52.1206 52.9349 52.1206H55.9563C56.4397 52.1206 56.9231 51.7587 56.9231 51.1554C56.9231 50.5522 56.5605 50.1902 55.9563 50.1902Z" fill="#02B6AC"/>
<path d="M48.2215 8.80743H47.1338C47.0129 8.80743 46.8921 8.92808 46.8921 9.04873V11.2204C46.8921 11.3411 47.0129 11.4617 47.1338 11.4617H48.2215C49.1883 11.4617 49.7926 10.9791 49.7926 10.1346C49.7926 9.29003 49.1883 8.80743 48.2215 8.80743Z" fill="#02B6AC"/>
<path d="M41.6951 22.9234H40.97C40.8491 22.9234 40.7283 23.0441 40.7283 23.1647V24.4919C40.7283 24.6125 40.8491 24.7332 40.97 24.7332H41.6951C42.4202 24.7332 42.7828 24.3712 42.7828 23.8886C42.7828 23.2854 42.4202 22.9234 41.6951 22.9234Z" fill="#02B6AC"/>
<path d="M49.7925 22.9234H49.0674C48.9465 22.9234 48.8257 23.0441 48.8257 23.1647V24.4919C48.8257 24.6125 48.9465 24.7332 49.0674 24.7332H49.7925C50.5177 24.7332 50.8802 24.3712 50.8802 23.8886C50.8802 23.2854 50.5177 22.9234 49.7925 22.9234Z" fill="#02B6AC"/>
<path d="M78.9187 0H14.7444C13.1733 0 11.9647 1.2065 11.9647 2.77494C11.9647 4.34339 13.1733 5.54988 14.7444 5.54988H26.4674C26.9508 5.54988 27.4342 5.91183 27.4342 6.51508C27.4342 6.99768 27.0717 7.35963 26.5882 7.48028H20.5455C20.062 7.48028 19.5786 7.84223 19.5786 8.44548C19.5786 8.92807 19.9412 9.41067 20.5455 9.41067H28.4011C28.6428 9.41067 29.0053 9.77262 29.0053 10.2552C29.0053 10.7378 28.6428 11.2204 28.0385 11.2204H9.06417C7.49305 11.2204 6.28449 12.4269 6.28449 13.9954C6.28449 15.4432 7.37219 16.6497 8.7016 16.7703H12.6898C14.261 16.7703 15.4695 17.9768 15.4695 19.5452C15.4695 21.1137 14.261 22.3202 12.6898 22.3202H2.77968C1.20856 22.3202 0 23.5267 0 25.0951C0 26.6636 1.20856 27.8701 2.77968 27.8701H9.66845H10.877C10.9979 27.8701 10.9979 27.8701 11.1187 27.8701H13.5358C14.0193 27.8701 14.5027 28.232 14.5027 28.8353C14.5027 29.3179 14.1401 29.6798 13.6567 29.8005H10.5144C10.031 29.8005 9.54759 30.1624 9.54759 30.7657C9.54759 31.2483 9.91016 31.7309 10.5144 31.7309H16.0738C16.5572 31.8515 16.7989 32.2135 16.7989 32.6961C16.7989 33.1787 16.4364 33.6613 15.8321 33.6613H9.66845C8.21818 33.7819 7.00963 34.9884 7.00963 36.4362C7.00963 37.884 8.21818 39.0905 9.66845 39.2111V41.9861C9.66845 42.8306 10.2727 43.4339 11.1187 43.4339H18.3701C18.3701 37.884 22.8417 33.42 28.4011 33.42C33.9604 33.42 38.4321 37.884 38.4321 43.4339H80.4898V1.56845C80.4898 0.723898 79.7647 0 78.9187 0ZM54.8685 6.15313C54.8685 6.03248 54.9893 5.91183 55.1102 5.91183H63.6909C63.8118 5.91183 63.9326 6.03248 63.9326 6.15313V8.56613C63.9326 8.68678 63.8118 8.80743 63.6909 8.80743H58.8567C58.7358 8.80743 58.615 8.92807 58.615 9.04872V9.89327C58.615 10.0139 58.7358 10.1346 58.8567 10.1346H63.0866C63.2075 10.1346 63.3283 10.2552 63.3283 10.3759V12.6682C63.3283 12.7889 63.2075 12.9095 63.0866 12.9095H58.8567C58.7358 12.9095 58.615 13.0302 58.615 13.1508V14.116C58.615 14.2367 58.7358 14.3573 58.8567 14.3573H63.9326C64.0535 14.3573 64.1743 14.478 64.1743 14.5986V17.0116C64.1743 17.1323 64.0535 17.2529 63.9326 17.2529H55.231C55.1102 17.2529 54.9893 17.1323 54.9893 17.0116V6.15313H54.8685ZM21.0289 28.7146C19.8203 28.7146 18.6118 28.4733 17.8866 27.9907C17.7658 27.9907 17.7658 27.8701 17.7658 27.7494L18.3701 26.3016C18.3701 26.181 18.6118 26.181 18.6118 26.181C19.3369 26.5429 20.1829 26.7842 20.908 26.7842C21.6332 26.7842 21.8749 26.6636 21.8749 26.4223C21.8749 25.4571 17.6449 26.181 17.6449 23.406C17.6449 21.9582 18.8535 20.7517 21.2706 20.7517C22.2374 20.7517 23.2043 20.993 24.0503 21.355C24.1711 21.355 24.1711 21.4756 24.1711 21.5963L23.5668 23.0441C23.5668 23.1647 23.446 23.1647 23.3251 23.1647C22.6 22.8028 21.9957 22.6821 21.3914 22.6821C20.6663 22.6821 20.4246 22.9234 20.4246 23.1647C20.4246 24.1299 24.6545 23.2854 24.6545 26.181C24.6545 27.6288 23.446 28.7146 21.0289 28.7146ZM32.9936 28.3527C32.9936 28.4733 32.8727 28.594 32.7519 28.594H30.5765C30.4556 28.594 30.3348 28.4733 30.3348 28.3527V25.9397C30.3348 25.819 30.2139 25.6984 30.093 25.6984H28.1594C28.0385 25.6984 27.9176 25.819 27.9176 25.9397V28.3527C27.9176 28.4733 27.7968 28.594 27.6759 28.594H25.5005C25.3797 28.594 25.2588 28.4733 25.2588 28.3527V21.1137C25.2588 20.993 25.3797 20.8724 25.5005 20.8724H27.7968C27.9176 20.8724 28.0385 20.993 28.0385 21.1137V23.406C28.0385 23.5267 28.1594 23.6473 28.2802 23.6473H30.2139C30.3348 23.6473 30.4556 23.5267 30.4556 23.406V21.1137C30.4556 20.993 30.5765 20.8724 30.6973 20.8724H32.8727C32.9936 20.8724 33.1144 20.993 33.1144 21.1137V28.3527H32.9936ZM36.861 28.3527C36.861 28.4733 36.7401 28.594 36.6193 28.594H34.4439C34.323 28.594 34.2021 28.4733 34.2021 28.3527V21.1137C34.2021 20.993 34.323 20.8724 34.4439 20.8724H36.6193C36.7401 20.8724 36.861 20.993 36.861 21.1137V28.3527ZM36.7401 13.6334V16.7703C36.7401 16.891 36.6193 17.0116 36.4984 17.0116H33.2353C33.1144 17.0116 32.9936 16.891 32.9936 16.7703V6.15313C32.9936 6.03248 33.1144 5.91183 33.2353 5.91183H41.816C41.9369 5.91183 42.0578 6.03248 42.0578 6.15313V8.56613C42.0578 8.68678 41.9369 8.80743 41.816 8.80743H36.9818C36.861 8.80743 36.7401 8.92807 36.7401 9.04872V10.4965C36.7401 10.6172 36.861 10.7378 36.9818 10.7378H41.0909C41.2118 10.7378 41.3326 10.8585 41.3326 10.9791V13.3921C41.3326 13.5128 41.2118 13.6334 41.0909 13.6334H36.9818C36.861 13.3921 36.7401 13.5128 36.7401 13.6334ZM41.816 26.6636H40.9701C40.8492 26.6636 40.7283 26.7842 40.7283 26.9049V28.3527C40.7283 28.4733 40.6075 28.594 40.4866 28.594H38.3112C38.1904 28.594 38.0695 28.4733 38.0695 28.3527V21.1137C38.0695 20.993 38.1904 20.8724 38.3112 20.8724H41.816C43.9914 20.8724 45.3209 21.9582 45.3209 23.768C45.3209 25.5777 43.9914 26.6636 41.816 26.6636ZM49.9134 26.6636H49.0674C48.9465 26.6636 48.8257 26.7842 48.8257 26.9049V28.3527C48.8257 28.4733 48.7048 28.594 48.584 28.594H46.4086C46.2877 28.594 46.1668 28.4733 46.1668 28.3527V21.1137C46.1668 20.993 46.2877 20.8724 46.4086 20.8724H49.9134C52.0888 20.8724 53.4182 21.9582 53.4182 23.768C53.4182 25.5777 52.0888 26.6636 49.9134 26.6636ZM53.2973 17.0116H49.9134C49.7925 17.0116 49.7925 17.0116 49.7925 16.891L48.1005 14.3573L47.9797 14.2367H47.1337C47.0128 14.2367 46.892 14.3573 46.892 14.478V16.7703C46.892 16.891 46.7711 17.0116 46.6503 17.0116H43.3872C43.2663 17.0116 43.1455 16.891 43.1455 16.7703V6.15313C43.1455 6.03248 43.2663 5.91183 43.3872 5.91183H48.4631C51.4845 5.91183 53.539 7.48028 53.539 10.0139C53.539 11.4617 52.8139 12.6682 51.7262 13.3921C51.6053 13.5128 51.6054 13.6334 51.6054 13.7541L53.539 16.6497C53.539 16.7703 53.539 17.0116 53.2973 17.0116ZM56.923 28.3527C56.923 28.4733 56.8021 28.594 56.6813 28.594H54.5059C54.385 28.594 54.2642 28.4733 54.2642 28.3527V21.1137C54.2642 20.993 54.385 20.8724 54.5059 20.8724H56.6813C56.8021 20.8724 56.923 20.993 56.923 21.1137V28.3527ZM65.7455 28.3527C65.7455 28.4733 65.6246 28.594 65.5037 28.594H63.6909C63.5701 28.594 63.5701 28.594 63.5701 28.4733L61.0321 25.4571C60.9112 25.3364 60.6695 25.3364 60.6695 25.5777V28.232C60.6695 28.3527 60.5487 28.4733 60.4278 28.4733H58.3733C58.2524 28.4733 58.1315 28.3527 58.1315 28.232V20.993C58.1315 20.8724 58.2524 20.7517 58.3733 20.7517H60.1861C60.307 20.7517 60.307 20.7517 60.307 20.8724L62.8449 23.8886C62.9658 24.0093 63.2075 24.0093 63.2075 23.768V21.1137C63.2075 20.993 63.3283 20.8724 63.4492 20.8724H65.5037C65.6246 20.8724 65.7455 20.993 65.7455 21.1137V28.3527ZM74.4471 22.3202L73.1176 23.5267C72.9968 23.6473 72.8759 23.6473 72.7551 23.5267C72.2717 23.0441 71.7882 22.8028 71.184 22.8028C70.0963 22.8028 69.2503 23.5267 69.2503 24.7332C69.2503 25.9397 69.9754 26.6636 71.0631 26.6636C71.3048 26.6636 71.5465 26.6636 71.9091 26.5429C72.0299 26.5429 72.0299 26.4223 72.0299 26.3016V24.7332C72.0299 24.6125 72.1508 24.4919 72.2717 24.4919H74.0845C74.2053 24.4919 74.3262 24.6125 74.3262 24.7332V27.6288C74.3262 27.7494 74.3262 27.7494 74.2054 27.8701C73.2385 28.4733 72.0299 28.8353 70.9422 28.8353C68.4043 28.8353 66.5914 27.1462 66.5914 24.8538C66.5914 22.4408 68.4043 20.8724 70.9422 20.8724C72.3925 20.8724 73.6011 21.355 74.3262 22.1995C74.5679 22.0789 74.5679 22.1995 74.4471 22.3202ZM74.6888 16.7703C74.6888 16.891 74.5679 17.0116 74.4471 17.0116H65.7455C65.6246 17.0116 65.5037 16.891 65.5037 16.7703V6.15313C65.5037 6.03248 65.6246 5.91183 65.7455 5.91183H74.3262C74.4471 5.91183 74.5679 6.03248 74.5679 6.15313V8.56613C74.5679 8.68678 74.4471 8.80743 74.3262 8.80743H69.492C69.3711 8.80743 69.2503 8.92807 69.2503 9.04872V9.89327C69.2503 10.0139 69.3711 10.1346 69.492 10.1346H73.7219C73.8428 10.1346 73.9636 10.2552 73.9636 10.3759V12.6682C73.9636 12.7889 73.8428 12.9095 73.7219 12.9095H69.492C69.3711 12.9095 69.2503 13.0302 69.2503 13.1508V14.116C69.2503 14.2367 69.3711 14.3573 69.492 14.3573H74.5679C74.6888 14.3573 74.8096 14.478 74.8096 14.5986V16.7703H74.6888Z" fill="#02B6AC"/>
</g>
<defs>
<clipPath id="clip0_2051_516">
<rect width="113" height="52" fill="white"/>
</clipPath>
</defs>
</svg>