<svg width="72" height="63" viewBox="0 0 72 63" fill="none" xmlns="http://www.w3.org/2000/svg">
<path d="M72 39.3579V31.1584L63.6279 28.9718C62.9302 25.9653 61.6744 23.0954 60 20.4989L64.3256 13.256L58.4651 7.51627L51.0698 11.7527C48.4186 10.1128 45.4884 8.88286 42.4186 8.19957L40.186 0H31.814L29.5814 8.19957C26.5116 8.88286 23.5814 10.1128 20.9302 11.7527L13.5349 7.37961L7.53488 13.256L12 20.4989C10.3256 23.0954 9.06977 25.9653 8.37209 28.9718L0 31.1584V39.3579L8.37209 41.5445C9.06977 44.551 10.3256 47.4208 12 50.0174L7.67442 57.2603L13.5349 63L20.9302 58.7636C22.4651 59.7202 24.1395 60.5401 25.9535 61.2234V52.3406C19.9535 48.9241 15.7674 42.6377 15.7674 35.2581C15.7674 24.0521 25.3953 15.0325 36.9767 15.5792C47.4419 16.1258 55.814 24.5987 56.093 34.8482C56.2326 42.3644 52.1861 48.9241 45.907 52.3406V61.2234C47.7209 60.5401 49.3954 59.7202 50.9302 58.7636L58.3256 63L64.1861 57.2603L60 49.8807C61.6744 47.2842 62.9302 44.4143 63.6279 41.4078L72 39.3579Z" fill="#02B6AC"/>
<path d="M51.3488 35.2581C51.3488 28.9718 47.4418 23.6421 42 21.4555V38.6746L36 42.0911L30 38.6746V21.3189C24.4186 23.6421 20.6511 28.9718 20.6511 35.1215C20.6511 41.4078 24.5581 46.7375 30 48.9241V62.18C31.9534 62.59 33.9069 62.7267 36 62.7267C38.093 62.7267 40.0465 62.4534 42 62.18V48.9241C47.4418 46.8742 51.3488 41.4078 51.3488 35.2581Z" fill="#02B6AC"/>
</svg>